<?xml version="1.0" encoding="UTF-8" standalone="no"?>
<!-- Generator: Adobe Illustrator 19.0.0, SVG Export Plug-In . SVG Version: 6.00 Build 0)  -->

<svg
   xmlns:dc="http://purl.org/dc/elements/1.1/"
   xmlns:cc="http://creativecommons.org/ns#"
   xmlns:rdf="http://www.w3.org/1999/02/22-rdf-syntax-ns#"
   xmlns:svg="http://www.w3.org/2000/svg"
   xmlns="http://www.w3.org/2000/svg"
   xmlns:sodipodi="http://sodipodi.sourceforge.net/DTD/sodipodi-0.dtd"
   xmlns:inkscape="http://www.inkscape.org/namespaces/inkscape"
   version="1.1"
   id="Capa_1"
   x="0px"
   y="0px"
   viewBox="0 0 425.6 425.6"
   style="enable-background:new 0 0 425.6 425.6;"
   xml:space="preserve"
   sodipodi:docname="alarm.svg"
   inkscape:export-filename="C:\Users\lbugnion\Documents\NotificationsClient\source\Misc\alarm.png"
   inkscape:export-xdpi="96"
   inkscape:export-ydpi="96"
   inkscape:version="0.92.3 (2405546, 2018-03-11)"><metadata
   id="metadata51"><rdf:RDF><cc:Work
       rdf:about=""><dc:format>image/svg+xml</dc:format><dc:type
         rdf:resource="http://purl.org/dc/dcmitype/StillImage" /></cc:Work></rdf:RDF></metadata><defs
   id="defs49" /><sodipodi:namedview
   pagecolor="#ffffff"
   bordercolor="#666666"
   borderopacity="1"
   objecttolerance="10"
   gridtolerance="10"
   guidetolerance="10"
   inkscape:pageopacity="0"
   inkscape:pageshadow="2"
   inkscape:window-width="2579"
   inkscape:window-height="1779"
   id="namedview47"
   showgrid="false"
   inkscape:zoom="0.55451127"
   inkscape:cx="-229.03051"
   inkscape:cy="212.8"
   inkscape:window-x="144"
   inkscape:window-y="-13"
   inkscape:window-maximized="1"
   inkscape:current-layer="Capa_1" />
<g
   id="g14"
   transform="matrix(3.0544193,3.5733287,-3.4922802,3.2558283,288.03911,-1227.416)">
	<g
   id="g12">
		<g
   id="g10">
			<path
   d="M 382.933,175.467 H 425.6 C 422.4,107.093 388.693,46.933 337.6,8 l -30.4,30.4 c 43.307,31.04 72.427,80.533 75.733,137.067 z"
   id="path2"
   inkscape:connector-curvature="0" />
			<path
   d="M 118.507,38.507 88,8 C 36.907,46.933 3.2,107.093 0,175.467 H 42.667 C 45.973,118.933 75.093,69.44 118.507,38.507 Z"
   id="path4"
   inkscape:connector-curvature="0" />
			<path
   d="m 340.8,186.133 c 0,-65.6 -34.88,-120.32 -96,-134.827 V 36.8 c 0,-17.707 -14.293,-32 -32,-32 -17.707,0 -32,14.293 -32,32 v 14.507 c -61.12,14.507 -96,69.227 -96,134.827 V 292.8 L 42.133,335.467 V 356.8 H 383.466 V 335.467 L 340.8,292.8 Z"
   id="path6"
   inkscape:connector-curvature="0" />
			<path
   d="m 212.8,420.8 v 0 c 2.987,0 5.867,-0.32 8.64,-0.853 13.867,-2.88 25.28,-12.48 30.72,-25.173 2.133,-5.12 3.307,-10.667 3.307,-16.64 h -85.333 c -10e-4,23.573 19.093,42.666 42.666,42.666 z"
   id="path8"
   inkscape:connector-curvature="0" />
		</g>
	</g>
</g>
<g
   id="g16">
</g>
<g
   id="g18">
</g>
<g
   id="g20">
</g>
<g
   id="g22">
</g>
<g
   id="g24">
</g>
<g
   id="g26">
</g>
<g
   id="g28">
</g>
<g
   id="g30">
</g>
<g
   id="g32">
</g>
<g
   id="g34">
</g>
<g
   id="g36">
</g>
<g
   id="g38">
</g>
<g
   id="g40">
</g>
<g
   id="g42">
</g>
<g
   id="g44">
</g>
<g
   inkscape:groupmode="layer"
   id="layer1"
   inkscape:label="Layer 1" /></svg>